<mxfile host="app.diagrams.net" modified="2024-12-02T16:51:37.147Z" agent="Mozilla/5.0 (Macintosh; Intel Mac OS X 10_15_7) AppleWebKit/537.36 (KHTML, like Gecko) Chrome/131.0.0.0 Safari/537.36" etag="JLCsSatAZrt1O05__AR3" version="24.3.1" type="device">
  <diagram name="Trang-1" id="3Ka5fy06gcCdTcY_nhYy">
    <mxGraphModel dx="1194" dy="755" grid="1" gridSize="10" guides="1" tooltips="1" connect="1" arrows="1" fold="1" page="1" pageScale="1" pageWidth="827" pageHeight="1169" math="0" shadow="0">
      <root>
        <mxCell id="0" />
        <mxCell id="1" parent="0" />
        <mxCell id="gcX-qTKEkVq3dXN0YPoa-5" style="edgeStyle=orthogonalEdgeStyle;rounded=0;orthogonalLoop=1;jettySize=auto;html=1;entryX=0.5;entryY=0;entryDx=0;entryDy=0;" edge="1" parent="1" source="gcX-qTKEkVq3dXN0YPoa-2">
          <mxGeometry relative="1" as="geometry">
            <mxPoint x="360" y="180" as="targetPoint" />
          </mxGeometry>
        </mxCell>
        <mxCell id="gcX-qTKEkVq3dXN0YPoa-2" value="Start" style="ellipse;whiteSpace=wrap;html=1;" vertex="1" parent="1">
          <mxGeometry x="300" y="50" width="120" height="80" as="geometry" />
        </mxCell>
        <mxCell id="gcX-qTKEkVq3dXN0YPoa-3" value="End" style="ellipse;whiteSpace=wrap;html=1;" vertex="1" parent="1">
          <mxGeometry x="300" y="500" width="120" height="80" as="geometry" />
        </mxCell>
        <mxCell id="gcX-qTKEkVq3dXN0YPoa-17" style="edgeStyle=orthogonalEdgeStyle;rounded=0;orthogonalLoop=1;jettySize=auto;html=1;entryX=0.5;entryY=0;entryDx=0;entryDy=0;" edge="1" parent="1" source="gcX-qTKEkVq3dXN0YPoa-8" target="gcX-qTKEkVq3dXN0YPoa-9">
          <mxGeometry relative="1" as="geometry" />
        </mxCell>
        <mxCell id="gcX-qTKEkVq3dXN0YPoa-8" value="n" style="shape=parallelogram;perimeter=parallelogramPerimeter;whiteSpace=wrap;html=1;fixedSize=1;" vertex="1" parent="1">
          <mxGeometry x="300" y="180" width="120" height="60" as="geometry" />
        </mxCell>
        <mxCell id="gcX-qTKEkVq3dXN0YPoa-12" style="edgeStyle=orthogonalEdgeStyle;rounded=0;orthogonalLoop=1;jettySize=auto;html=1;exitX=0;exitY=0.5;exitDx=0;exitDy=0;entryX=1;entryY=0.5;entryDx=0;entryDy=0;" edge="1" parent="1" source="gcX-qTKEkVq3dXN0YPoa-9" target="gcX-qTKEkVq3dXN0YPoa-11">
          <mxGeometry relative="1" as="geometry" />
        </mxCell>
        <mxCell id="gcX-qTKEkVq3dXN0YPoa-14" value="True" style="edgeLabel;html=1;align=center;verticalAlign=middle;resizable=0;points=[];" vertex="1" connectable="0" parent="gcX-qTKEkVq3dXN0YPoa-12">
          <mxGeometry x="-0.1091" y="-3" relative="1" as="geometry">
            <mxPoint as="offset" />
          </mxGeometry>
        </mxCell>
        <mxCell id="gcX-qTKEkVq3dXN0YPoa-13" value="False" style="edgeStyle=orthogonalEdgeStyle;rounded=0;orthogonalLoop=1;jettySize=auto;html=1;" edge="1" parent="1" source="gcX-qTKEkVq3dXN0YPoa-9" target="gcX-qTKEkVq3dXN0YPoa-10">
          <mxGeometry relative="1" as="geometry" />
        </mxCell>
        <mxCell id="gcX-qTKEkVq3dXN0YPoa-9" value="n % 2 == 0" style="rhombus;whiteSpace=wrap;html=1;" vertex="1" parent="1">
          <mxGeometry x="300" y="300" width="120" height="110" as="geometry" />
        </mxCell>
        <mxCell id="gcX-qTKEkVq3dXN0YPoa-15" style="edgeStyle=orthogonalEdgeStyle;rounded=0;orthogonalLoop=1;jettySize=auto;html=1;entryX=1;entryY=0.5;entryDx=0;entryDy=0;" edge="1" parent="1" source="gcX-qTKEkVq3dXN0YPoa-10" target="gcX-qTKEkVq3dXN0YPoa-3">
          <mxGeometry relative="1" as="geometry">
            <Array as="points">
              <mxPoint x="600" y="540" />
            </Array>
          </mxGeometry>
        </mxCell>
        <mxCell id="gcX-qTKEkVq3dXN0YPoa-10" value="n là số lẻ" style="rounded=0;whiteSpace=wrap;html=1;" vertex="1" parent="1">
          <mxGeometry x="540" y="325" width="120" height="60" as="geometry" />
        </mxCell>
        <mxCell id="gcX-qTKEkVq3dXN0YPoa-16" style="edgeStyle=orthogonalEdgeStyle;rounded=0;orthogonalLoop=1;jettySize=auto;html=1;entryX=0;entryY=0.5;entryDx=0;entryDy=0;" edge="1" parent="1" source="gcX-qTKEkVq3dXN0YPoa-11" target="gcX-qTKEkVq3dXN0YPoa-3">
          <mxGeometry relative="1" as="geometry">
            <Array as="points">
              <mxPoint x="130" y="540" />
            </Array>
          </mxGeometry>
        </mxCell>
        <mxCell id="gcX-qTKEkVq3dXN0YPoa-11" value="n là số chẵn" style="rounded=0;whiteSpace=wrap;html=1;" vertex="1" parent="1">
          <mxGeometry x="70" y="325" width="120" height="60" as="geometry" />
        </mxCell>
      </root>
    </mxGraphModel>
  </diagram>
</mxfile>
